<svg xmlns="http://www.w3.org/2000/svg" viewBox="0 0 470 370" role="img" aria-labelledby="t"><title id="t">eligible_on: open N</title><rect width="470" height="370" fill="#faf8f2"/><path d="M34.010306599137536,83.53172260825622 L119.01030659913754,213.53172260825622 A43,43 0 0 0 190.98969340086245,166.46827739174378 L105.98969340086246,36.468277391743776 A43,43 0 0 0 34.010306599137536,83.53172260825622 Z" fill="#8054b6" fill-opacity=".08" stroke="#8054b6" stroke-width="2.5"/><text x="39" y="140" text-anchor="middle" font-family="ui-sans-serif,system-ui,sans-serif" font-size="22" font-weight="700" fill="#8054b6">D</text><path d="M366.4226411939497,33.138112955159755 L326.4226411939497,83.13811295515976 A43,43 0 0 0 393.5773588060503,136.86188704484024 L433.5773588060503,86.86188704484024 A43,43 0 0 0 366.4226411939497,33.138112955159755 Z" fill="#2765b0" fill-opacity=".08" stroke="#2765b0" stroke-width="2.5"/><text x="430" y="140" text-anchor="middle" font-family="ui-sans-serif,system-ui,sans-serif" font-size="22" font-weight="700" fill="#2765b0">N</text><path d="M121,152 Q235,128 349,152 Q373,172 351,221 L268,330 Q235,360 202,330 L119,221 Q97,172 121,152 Z" fill="#27806c" fill-opacity=".08" stroke="#27806c" stroke-width="2.5"/><text x="235" y="238" text-anchor="middle" font-family="ui-sans-serif,system-ui,sans-serif" font-size="22" font-weight="700" fill="#27806c">S</text><line x1="360" y1="110" x2="315" y2="190" stroke="#68635b" stroke-width="3" stroke-dasharray="6 5"/><circle cx="155" cy="190" r="32" fill="#faf8f2" stroke="#292722" stroke-width="2.5"/><text x="155" y="196" text-anchor="middle" font-family="ui-sans-serif,system-ui,sans-serif" font-size="18" font-weight="550" fill="#292722">depot</text><circle cx="315" cy="190" r="32" fill="#faf8f2" stroke="#292722" stroke-width="2.5"/><text x="315" y="196" text-anchor="middle" font-family="ui-sans-serif,system-ui,sans-serif" font-size="18" font-weight="550" fill="#292722">item</text><circle cx="235" cy="305" r="32" fill="#faf8f2" stroke="#292722" stroke-width="2.5"/><text x="235" y="311" text-anchor="middle" font-family="ui-sans-serif,system-ui,sans-serif" font-size="18" font-weight="550" fill="#292722">day</text><circle cx="70" cy="60" r="32" fill="#faf8f2" stroke="#292722" stroke-width="2.5"/><text x="70" y="66" text-anchor="middle" font-family="ui-sans-serif,system-ui,sans-serif" font-size="18" font-weight="550" fill="#292722">driver</text><circle cx="400" cy="60" r="32" fill="#faf8f2" stroke="#292722" stroke-width="2.5"/><text x="400" y="66" text-anchor="middle" font-family="ui-sans-serif,system-ui,sans-serif" font-size="18" font-weight="550" fill="#292722">job</text><circle cx="360" cy="110" r="32" fill="#faf8f2" stroke="#292722" stroke-width="2.5"/><text x="360" y="116" text-anchor="middle" font-family="ui-sans-serif,system-ui,sans-serif" font-size="18" font-weight="550" fill="#292722">item</text></svg>
